<?xml version="1.0" standalone="no"?>
<!DOCTYPE svg PUBLIC "-//W3C//DTD SVG 20010904//EN" "http://www.w3.org/TR/2001/REC-SVG-20010904/DTD/svg10.dtd">
<svg xmlns="http://www.w3.org/2000/svg" version="1.0" width="500.000000pt" height="500.000000pt" viewBox="0 0 500.000000 500.000000" preserveAspectRatio="xMidYMid meet">
<metadata>
Created by potrace 1.16, written by Peter Selinger 2001-2019
<meta name="Producer" content="Online-Convert"/></metadata>
<g transform="translate(0.000000,500.000000) scale(0.100000,-0.100000)" fill="#000000" stroke="none">
<path d="M2283 4960 c-571 -56 -1088 -294 -1497 -690 -395 -383 -643 -865 -728 -1415 -25 -165 -30 -513 -9 -655 43 -293 120 -551 235 -785 220 -446 543 -795 970 -1048 300 -177 664 -295 1013 -328 155 -15 472 -6 603 15 539 90 997 323 1371 695 383 383 622 861 706 1411 21 144 24 500 5 640 -79 558 -303 1024 -682 1413 -392 405 -865 647 -1430 732 -127 19 -431 27 -557 15z m198 -165 c55 -29 63 -115 15 -153 l-24 -18 45 -60 c24 -32 48 -60 53 -62 16 -6 22 44 24 178 1 104 4 129 14 125 8 -3 30 -5 49 -5 27 0 33 -3 25 -12 -15 -20 -34 -279 -20 -295 12 -15 -13 -17 -111 -7 l-62 7 -40 58 c-22 33 -42 59 -46 59 -3 0 -3 -27 -1 -60 l4 -60 -35 0 -36 0 3 124 c2 68 -1 140 -6 160 l-10 36 64 0 c39 0 77 -6 95 -15z m-223 -87 c20 -151 17 -175 -22 -214 -34 -34 -57 -40 -125 -34 -61 5 -90 51 -111 180 -7 41 -17 83 -22 93 -12 23 -12 23 40 32 34 6 41 4 36 -8 -8 -22 23 -186 41 -213 20 -31 74 -33 100 -4 18 19 18 27 6 108 -7 48 -18 99 -26 114 -14 30 -8 34 45 37 25 1 26 -2 38 -91z m614 67 c15 -6 12 -75 -3 -75 -5 0 -9 4 -9 9 0 13 -30 22 -51 16 -29 -10 -23 -44 16 -86 59 -65 57 -127 -4 -163 -27 -16 -41 -17 -79 -10 -42 8 -47 12 -50 37 -2 16 -1 36 3 45 5 13 8 12 21 -7 12 -16 24 -21 47 -19 48 5 47 35 -2 92 -31 36 -41 56 -41 82 0 51 36 84 94 84 24 0 51 -2 58 -5z m164 -140 l28 -115 88 87 c48 48 90 85 93 82 3 -3 -4 -74 -15 -158 -12 -83 -18 -156 -14 -162 4 -7 0 -9 -12 -6 -11 4 -31 9 -46 13 -31 7 -32 8 -18 32 5 9 13 43 18 75 l9 59 -63 -63 c-40 -40 -67 -60 -73 -54 -5 6 -18 46 -28 89 l-19 80 -22 -61 c-12 -33 -22 -68 -22 -77 0 -15 -6 -16 -32 -11 -47 10 -49 13 -34 38 7 12 37 79 67 149 29 70 56 125 60 122 4 -2 20 -56 35 -119z m-1160 56 c113 -51 128 -220 25 -286 -93 -60 -199 -35 -248 58 -34 67 -8 176 50 210 71 40 114 45 173 18z m-288 -105 c11 -25 11 -28 -3 -22 -15 5 -75 -18 -75 -29 0 -15 111 -224 120 -227 6 -2 -9 -13 -34 -26 -41 -19 -46 -20 -46 -5 0 16 -86 210 -100 226 -11 13 -70 -21 -70 -40 0 -21 -12 -8 -28 29 l-11 28 112 53 c62 30 115 51 118 48 3 -3 11 -19 17 -35z m2082 -98 c0 -7 -9 -82 -20 -167 -12 -93 -17 -158 -11 -164 5 -5 48 40 107 113 113 141 108 143 120 -29 10 -138 11 -139 68 -64 27 36 49 71 49 79 0 20 5 18 42 -14 30 -27 31 -30 14 -40 -10 -6 -57 -60 -105 -119 -47 -60 -89 -109 -94 -111 -8 -3 -15 48 -26 186 -4 45 -10 82 -13 82 -11 -1 -101 -123 -101 -137 0 -10 -12 -6 -37 14 -21 16 -55 40 -76 52 -27 17 -35 27 -28 34 23 23 11 52 -28 73 -36 19 -42 20 -61 7 -11 -8 -18 -19 -15 -24 9 -14 -2 -11 -46 12 l-41 20 44 28 c23 16 88 63 143 105 104 78 115 85 115 64z m-2527 -142 c15 -23 15 -24 -6 -30 -12 -3 -32 -15 -45 -26 l-23 -19 27 -36 27 -36 26 23 c14 13 29 27 33 32 6 9 47 -30 47 -44 0 -3 -14 -12 -31 -21 -17 -8 -33 -20 -36 -27 -2 -6 15 -31 37 -55 l41 -44 -35 -27 c-20 -16 -35 -22 -35 -15 0 14 -63 99 -142 191 l-48 56 63 51 c34 28 67 50 73 51 7 0 19 -11 27 -24z m1522 4 c647 -61 1206 -443 1496 -1023 288 -574 258 -1263 -79 -1805 l-52 -84 61 -66 c62 -68 141 -211 155 -279 9 -44 -3 -41 -49 10 -24 26 -32 32 -21 14 20 -34 9 -35 -54 -3 -26 13 -97 42 -158 65 l-110 43 -60 -57 c-244 -236 -558 -407 -879 -481 -263 -60 -584 -58 -849 5 -169 41 -396 135 -540 224 -44 28 -76 25 -76 -7 0 -11 -4 -27 -9 -34 -5 -9 -14 11 -27 58 -16 62 -24 76 -59 103 -22 18 -71 60 -109 95 -63 58 -70 62 -86 47 -9 -8 -21 -15 -26 -15 -5 0 -19 -19 -32 -41 -38 -67 -36 -37 3 40 l36 72 -43 49 c-24 28 -49 48 -55 45 -7 -2 -13 1 -13 7 0 9 -3 9 -12 0 -7 -7 -20 -12 -29 -12 -9 0 -22 -7 -29 -15 -7 -9 -19 -14 -26 -11 -6 2 -26 -13 -44 -35 -18 -22 -34 -38 -37 -35 -7 6 64 105 110 153 l30 32 -56 87 c-214 329 -322 758 -289 1142 22 249 75 447 178 662 335 698 1077 1121 1839 1050z m-1648 -211 c109 -68 98 -234 -19 -295 -15 -8 -49 -14 -76 -14 -85 0 -151 61 -159 147 -14 141 134 236 254 162z m3144 -31 c59 -69 69 -88 69 -138 0 -82 -63 -149 -149 -158 -62 -6 -113 20 -168 86 -39 46 -41 50 -23 58 32 15 210 176 210 191 0 24 15 14 61 -39z m-3457 -545 c26 -13 53 -23 61 -23 10 0 6 -13 -13 -47 -15 -28 -28 -42 -30 -33 -1 9 -23 28 -47 42 -41 25 -55 28 -160 30 -113 2 -114 3 -101 23 7 11 19 31 26 44 6 13 15 19 19 14 6 -10 121 -24 121 -15 0 12 -63 102 -72 102 -5 0 1 18 13 39 l22 40 57 -97 c50 -84 64 -100 104 -119z m3762 91 c37 -17 88 -83 99 -126 5 -20 1 -27 -20 -36 -37 -17 -40 -16 -41 19 -1 36 -45 85 -82 92 -61 12 -132 -44 -132 -103 0 -34 29 -86 53 -97 21 -10 21 -11 -13 -28 l-34 -18 -23 29 c-48 61 -56 164 -17 217 46 62 139 84 210 51z m-3968 -200 c13 -9 28 -29 34 -45 12 -34 4 -33 96 -10 39 10 72 14 72 9 0 -5 -7 -22 -15 -38 -13 -25 -23 -30 -90 -41 -85 -13 -86 -22 -7 -48 l49 -17 -14 -36 -15 -36 -31 18 c-62 37 -240 111 -253 106 -19 -7 -18 -5 15 68 42 92 91 114 159 70z m4118 -29 c18 -43 18 -56 1 -49 -8 3 -54 -12 -103 -34 -100 -43 -119 -65 -102 -114 17 -49 48 -53 136 -18 42 17 89 39 104 50 l26 19 16 -40 c18 -45 19 -52 7 -45 -5 3 -54 -12 -109 -34 -54 -22 -111 -40 -126 -40 -103 0 -164 144 -92 219 14 15 66 44 116 65 49 21 93 42 96 47 9 15 14 10 30 -26z m-4257 -165 c2 0 -3 -8 -12 -17 -8 -10 -18 -30 -22 -44 -7 -26 -5 -28 96 -59 56 -17 114 -32 129 -32 27 -1 27 -3 18 -32 -5 -17 -12 -37 -14 -45 -3 -10 -7 -11 -18 -1 -25 20 -230 80 -240 70 -5 -5 -10 -26 -10 -45 -1 -35 -2 -36 -30 -31 -16 4 -31 8 -33 10 -2 2 13 58 33 124 l37 120 31 -9 c17 -5 33 -9 35 -9z m4342 -221 c-26 -4 -65 -12 -88 -18 -24 -6 -61 -16 -84 -22 -41 -10 -41 -11 -34 -47 4 -20 12 -43 17 -50 14 -16 10 -20 -26 -24 -29 -3 -30 -2 -52 85 l-22 87 32 0 c39 0 257 57 271 71 7 7 13 -4 21 -33 l10 -43 -45 -6z m-4203 -115 c15 -18 22 -38 22 -69 0 -64 -7 -75 -46 -75 -39 0 -40 2 -18 36 14 20 15 30 6 49 -16 35 -39 31 -81 -14 -41 -45 -75 -61 -114 -54 -42 8 -67 47 -67 104 l0 49 42 0 c40 0 41 -1 24 -19 -21 -23 -18 -49 6 -65 14 -9 25 -3 60 30 24 23 52 47 63 53 29 16 77 5 103 -25z m4277 4 c10 -47 35 -221 32 -224 -2 -2 -17 -6 -33 -10 l-29 -6 3 46 c4 42 2 46 -18 46 -35 0 -213 -32 -231 -41 -13 -6 -18 -3 -23 14 -10 38 -7 70 7 64 9 -3 200 22 245 32 8 2 -1 50 -13 68 -14 20 -13 22 2 26 39 10 53 6 58 -15z m-4429 -184 c84 -4 127 -3 142 5 21 11 22 10 22 -39 0 -48 -1 -50 -21 -40 -13 7 -71 10 -160 8 l-139 -3 0 43 c0 37 3 43 18 38 9 -3 71 -8 138 -12z m4474 -126 l0 -43 -102 3 c-122 3 -151 -7 -156 -55 -7 -73 28 -88 170 -75 82 7 87 7 92 -13 17 -61 18 -60 -123 -55 -111 4 -134 8 -158 26 -56 42 -65 137 -16 194 27 33 52 40 183 50 52 4 98 8 103 9 4 0 7 -18 7 -41z m-4310 -5 c0 -5 -39 -51 -86 -103 l-85 -95 55 -3 c31 -2 72 1 91 7 l35 9 0 -41 0 -42 -160 -1 c-88 0 -160 3 -160 6 0 4 41 50 90 102 50 53 90 98 90 101 0 7 -154 -5 -172 -15 -16 -8 -18 -3 -18 34 l0 43 160 3 c88 1 160 -1 160 -5z m4153 -299 c71 -7 135 -10 143 -7 32 12 9 -132 -27 -168 -31 -31 -94 -26 -131 11 l-30 31 -61 -38 c-33 -21 -60 -42 -59 -48 1 -12 107 -40 215 -57 l77 -12 -6 -34 c-22 -116 -30 -137 -49 -134 -39 6 -48 12 -37 25 6 6 13 29 17 49 7 36 6 37 -29 44 -21 3 -39 4 -41 2 -3 -3 -6 -23 -7 -46 -1 -40 -2 -41 -32 -35 -17 3 -32 6 -33 7 -1 1 4 20 10 43 6 23 9 44 6 46 -2 3 -21 7 -41 11 l-37 7 -6 -45 c-4 -25 -4 -49 -1 -55 5 -7 -4 -9 -26 -4 -18 3 -35 7 -36 9 -2 1 6 51 18 111 12 59 23 118 26 131 3 16 23 32 69 54 36 18 65 36 65 41 0 5 -29 7 -65 5 -51 -2 -64 0 -60 10 3 8 5 27 5 44 0 25 3 29 18 23 9 -4 75 -13 145 -21z m-4124 -66 c1 -22 -2 -25 -19 -21 -30 8 -240 -17 -272 -32 -25 -12 -28 -12 -28 5 0 9 -3 31 -6 48 -6 27 -4 29 18 25 33 -6 271 26 283 38 11 11 22 -18 24 -63z m5 -65 c4 -16 10 -37 13 -47 4 -14 1 -18 -10 -13 -8 3 -45 -4 -82 -16 l-66 -21 82 -26 c45 -14 84 -30 86 -36 2 -6 -26 -37 -63 -68 l-67 -57 54 6 c30 4 66 10 81 15 29 9 29 9 42 -50 l5 -25 -82 0 c-45 0 -119 -3 -164 -7 -46 -4 -83 -3 -83 1 0 5 40 44 90 87 l90 79 -122 38 c-66 21 -117 42 -112 46 5 5 69 30 142 56 73 26 135 52 138 56 10 17 22 9 28 -18z m181 -827 c79 -34 74 -138 -9 -166 -107 -35 -166 121 -63 165 40 18 32 17 72 1z m3624 3 c31 -11 61 -52 61 -83 0 -51 -67 -104 -113 -90 -87 26 -92 146 -7 177 22 8 24 8 59 -4z m-2937 -659 l3 -120 98 66 c54 36 102 64 107 62 4 -2 -14 -61 -41 -133 -26 -72 -48 -140 -49 -152 0 -27 -12 -29 -48 -6 -15 9 -28 17 -29 18 -1 0 11 27 27 60 16 33 30 65 30 72 0 7 -33 -11 -72 -38 -85 -58 -86 -57 -88 61 l-1 75 -34 -55 c-19 -30 -35 -60 -35 -67 0 -18 -14 -16 -50 6 -27 16 -29 20 -15 31 9 7 52 64 96 126 44 63 84 114 89 114 5 0 11 -54 12 -120z m2259 14 c62 -47 125 -94 140 -103 l29 -18 -40 -22 -41 -23 -18 24 c-19 22 -20 22 -55 5 -43 -20 -54 -42 -37 -69 14 -23 16 -21 -26 -42 -43 -21 -43 -21 -43 19 0 33 -25 232 -36 288 -3 16 -1 27 5 27 6 0 61 -39 122 -86z m-323 -46 c0 -28 87 -236 108 -259 13 -15 11 -18 -26 -33 -51 -20 -50 -20 -50 7 0 28 -86 236 -106 257 -13 13 -10 17 23 32 50 22 50 22 51 -4z m-1454 -190 c4 -73 9 -154 13 -180 l5 -47 -40 16 c-38 14 -40 18 -35 48 5 31 3 32 -41 45 -49 13 -76 4 -76 -27 0 -10 -6 -13 -16 -9 -9 3 -27 9 -40 12 -31 8 -30 14 7 50 17 16 69 73 116 127 47 53 88 97 93 97 4 0 10 -60 14 -132z m1266 113 c0 -11 3 -27 7 -36 5 -15 3 -16 -15 -6 -16 8 -28 9 -42 1 -35 -19 -24 -47 32 -77 69 -38 93 -70 84 -118 -8 -40 -46 -70 -104 -81 -40 -8 -41 -6 -49 42 -5 32 -3 37 8 27 17 -16 51 -17 67 -1 23 23 13 47 -30 69 -24 12 -51 29 -62 38 -66 58 -21 160 72 161 25 0 32 -4 32 -19z m-230 -34 c0 -1 -16 -43 -36 -92 -39 -97 -44 -157 -20 -207 16 -31 21 -27 -56 -43 -22 -4 -23 -1 -23 59 0 61 -1 64 -67 152 -56 74 -64 90 -50 96 29 12 72 9 72 -5 0 -7 14 -33 32 -56 l32 -44 18 54 c10 29 16 59 14 66 -3 7 6 13 22 16 38 6 62 7 62 4z m-745 -28 c5 -6 5 -9 -2 -9 -12 0 -59 -237 -50 -247 4 -3 27 -6 52 -7 42 -1 45 -3 45 -28 0 -15 -4 -29 -9 -32 -5 -3 -48 1 -95 10 -64 12 -84 19 -77 28 14 17 54 244 49 278 -4 27 -4 28 36 22 23 -4 45 -10 51 -15z m360 -121 c26 -62 58 -134 71 -160 13 -26 24 -50 24 -53 0 -3 -20 -5 -45 -5 -38 0 -45 3 -45 19 0 41 -11 51 -56 51 -34 0 -46 -5 -54 -21 -7 -11 -9 -27 -6 -35 4 -11 -5 -14 -39 -14 -41 0 -58 11 -37 24 5 3 35 73 68 155 32 83 62 151 65 151 4 0 28 -51 54 -112z"/>
<path d="M1770 4643 c-8 -3 -25 -15 -37 -26 -72 -66 -4 -201 93 -183 74 14 101 116 47 176 -28 30 -74 45 -103 33z"/>
<path d="M3051 4165 c0 -33 -5 -75 -10 -93 -6 -20 -6 -30 0 -27 5 4 9 -8 9 -26 0 -18 7 -40 16 -50 17 -19 15 -29 -11 -65 -15 -21 -13 -24 62 -77 43 -31 91 -66 107 -79 l30 -22 -30 53 c-16 29 -48 75 -72 101 -26 30 -40 54 -36 63 3 9 1 25 -6 36 -12 23 -1 28 18 9 7 -7 12 -8 12 -2 0 6 -11 16 -24 22 -26 12 -45 60 -47 122 -1 19 -5 49 -9 65 -6 24 -8 19 -9 -30z"/>
<path d="M3367 4016 c-5 -34 -46 -106 -59 -106 -11 0 -38 56 -38 80 0 23 -3 23 -47 11 -21 -6 -35 -5 -42 2 -8 8 -11 5 -11 -11 0 -12 -5 -31 -12 -41 -10 -16 -6 -26 30 -66 22 -25 58 -73 79 -106 21 -32 45 -59 53 -59 30 -1 41 -15 31 -42 -6 -17 -6 -40 1 -67 10 -39 12 -41 50 -41 l39 0 -22 -31 c-22 -32 -22 -32 -6 -132 16 -102 24 -117 65 -117 27 0 27 2 2 -55 -20 -46 -20 -51 -5 -164 9 -64 18 -128 21 -143 l6 -28 389 0 c305 0 389 3 389 13 0 21 -38 145 -70 230 -30 79 -33 83 -83 107 -214 105 -535 437 -693 718 -26 45 -50 82 -54 82 -4 0 -10 -15 -13 -34z"/>
<path d="M2980 4001 c-6 -16 -21 -37 -31 -47 -19 -17 -20 -17 -35 4 -15 21 -20 22 -122 16 -90 -6 -117 -3 -172 13 -36 11 -70 18 -76 16 -11 -4 -4 -70 10 -104 4 -10 3 -20 -3 -24 -6 -3 -11 -22 -11 -41 0 -32 2 -34 20 -24 23 12 27 -2 5 -20 -21 -18 -19 -30 6 -30 52 0 119 -113 104 -179 -5 -25 -1 -29 65 -61 38 -19 70 -36 70 -39 0 -3 -12 -18 -25 -33 -18 -21 -33 -28 -60 -28 l-35 0 0 -80 0 -79 53 -39 c61 -46 97 -66 104 -58 3 3 -8 30 -25 60 -33 57 -30 66 19 66 18 0 19 8 19 108 0 103 -1 110 -25 132 -34 32 -32 40 14 40 39 0 40 1 43 38 2 20 -3 50 -10 65 -15 32 -9 47 18 47 12 0 30 24 60 83 23 45 53 96 66 113 20 27 21 34 9 44 -7 6 -15 23 -17 37 -4 37 -23 39 -38 4z"/>
<path d="M2460 3964 c-61 -53 -94 -72 -153 -89 -67 -19 -123 -14 -162 17 -18 14 -33 18 -55 13 -17 -4 -30 -10 -29 -13 0 -4 19 -41 42 -82 30 -53 49 -76 65 -78 25 -4 26 -5 11 -47 -7 -18 -9 -47 -5 -68 6 -34 10 -37 41 -37 42 0 43 -6 10 -40 -23 -24 -24 -28 -18 -133 6 -103 7 -107 29 -107 35 0 37 -14 7 -74 -15 -31 -24 -58 -20 -62 7 -8 69 29 114 69 32 28 33 31 33 108 l0 79 -39 0 c-31 0 -44 6 -60 26 -12 15 -21 31 -21 36 0 5 29 23 65 39 l65 31 0 44 c0 25 6 59 14 77 14 36 69 87 92 87 19 0 18 9 -3 33 -17 19 -17 20 0 14 26 -10 33 18 14 57 -10 22 -12 38 -5 49 5 10 8 32 6 49 l-3 32 -35 -30z"/>
<path d="M1957 3854 c-124 -157 -187 -390 -187 -690 0 -192 49 -343 157 -479 l48 -60 7 85 c4 47 13 107 22 134 11 36 12 54 4 72 -10 21 -3 32 86 128 59 64 96 112 96 125 0 12 9 39 20 60 l19 39 -23 6 c-22 5 -24 11 -31 127 -5 83 -3 125 4 132 17 17 13 27 -8 27 -16 0 -21 9 -27 45 -3 25 -4 57 -1 71 3 17 -1 28 -10 31 -8 3 -31 40 -52 82 -21 42 -48 87 -58 100 l-20 24 -46 -59z"/>
<path d="M1815 3869 c-16 -5 -48 -8 -69 -7 -35 2 -40 -1 -47 -23 -8 -33 -38 -79 -51 -79 -5 0 -35 18 -65 40 l-56 40 -19 -30 c-10 -17 -66 -81 -124 -143 -88 -93 -115 -115 -156 -129 -27 -10 -65 -31 -84 -48 -29 -25 -177 -103 -236 -123 -26 -9 -95 -155 -144 -305 -24 -72 -44 -139 -44 -147 0 -13 55 -15 428 -15 l428 0 17 155 c15 134 16 158 4 182 -8 16 -18 38 -21 51 -7 20 -4 22 28 22 22 0 36 5 36 13 0 6 7 55 15 107 l14 94 -25 33 -25 33 41 0 c29 0 42 5 47 17 9 24 9 74 0 99 -6 18 -3 22 21 27 21 4 40 23 75 76 26 39 46 71 45 70 -2 0 -16 -5 -33 -10z"/>
<path d="M2923 3693 c-9 -3 -10 -10 -4 -21 5 -9 5 -39 1 -67 -4 -27 -7 -51 -6 -51 0 -1 26 2 56 7 30 4 91 8 135 9 l80 1 -120 64 c-66 36 -122 64 -125 64 -3 0 -11 -3 -17 -6z"/>
<path d="M2890 3370 c0 -98 0 -100 -25 -106 -14 -3 -25 -8 -25 -10 0 -1 10 -19 21 -39 25 -42 8 -50 165 78 60 49 129 101 153 118 25 16 40 29 35 29 -5 0 -65 7 -134 15 -69 8 -140 15 -157 15 l-33 0 0 -100z"/>
<path d="M3118 3223 c-126 -41 -228 -79 -228 -83 0 -4 41 -51 90 -104 50 -54 90 -101 90 -105 0 -4 -5 -12 -11 -18 -9 -9 -7 -30 7 -85 21 -84 24 -222 6 -255 -12 -21 -11 -23 13 -23 26 0 29 -7 19 -34 -9 -25 -169 -23 -183 2 -6 9 -11 12 -11 5 0 -6 5 -15 10 -18 6 -3 10 -14 10 -23 0 -13 -8 -18 -27 -17 -17 0 -28 -5 -27 -12 1 -7 2 -34 4 -60 l3 -48 6 55 c4 40 10 55 21 55 10 0 16 -12 18 -40 5 -72 16 -72 22 0 l5 70 65 0 65 0 6 -100 c3 -55 6 -77 7 -49 l2 51 52 24 c69 31 186 108 237 154 23 21 41 34 41 30 0 -29 -184 -233 -270 -299 -31 -24 -33 -28 -17 -37 35 -20 18 -31 -40 -25 -32 3 -123 2 -203 -3 l-145 -8 210 -2 210 -2 -42 -38 -43 -39 0 -154 c0 -106 -4 -158 -12 -166 -18 -18 -68 -15 -68 3 0 8 -4 15 -10 15 -15 0 -12 36 5 50 25 21 18 58 -12 74 -54 27 -103 -15 -76 -67 20 -40 9 -87 -22 -87 -13 0 -25 8 -29 18 -3 9 -9 23 -12 30 -3 7 1 12 10 12 14 0 16 16 16 109 0 63 4 112 10 116 6 3 10 15 10 26 0 16 7 19 45 19 42 0 45 -2 45 -26 0 -23 3 -25 33 -22 28 3 32 7 35 36 3 27 -1 34 -25 43 -15 6 -101 12 -189 14 -91 2 -171 8 -182 14 -25 13 -59 14 -66 2 -4 -5 -19 -5 -36 2 -22 8 -38 8 -60 0 -17 -7 -32 -7 -36 -2 -7 12 -41 11 -66 -2 -12 -6 -90 -13 -182 -14 -89 -2 -174 -8 -189 -14 -24 -9 -28 -16 -25 -43 3 -29 7 -33 36 -36 29 -3 32 -1 32 22 0 24 3 26 45 26 38 0 45 -3 45 -19 0 -11 5 -23 10 -26 6 -4 10 -53 10 -116 0 -94 2 -109 16 -109 12 0 15 -6 10 -22 -3 -13 -6 -26 -6 -30 0 -16 -50 -8 -50 7 0 8 -4 15 -10 15 -16 0 -12 31 6 51 34 38 -13 97 -63 78 -35 -13 -47 -44 -27 -73 11 -17 14 -35 9 -56 -6 -26 -11 -30 -40 -30 -21 0 -35 6 -39 16 -3 9 -6 82 -6 164 l0 149 -55 31 c-30 17 -57 35 -60 41 -4 5 76 9 206 9 117 0 210 3 207 6 -4 3 -97 6 -207 7 -111 1 -201 4 -201 8 0 20 65 29 222 29 158 0 170 1 163 18 -9 20 -25 155 -19 161 2 2 4 -4 4 -15 1 -14 5 -12 17 11 22 43 73 94 114 115 59 31 101 71 121 118 11 24 24 42 31 39 6 -2 22 -25 36 -51 19 -34 43 -58 86 -86 96 -61 116 -81 141 -134 28 -59 30 -93 10 -141 l-15 -35 167 2 167 2 -157 3 c-134 3 -156 6 -152 18 5 11 24 15 81 15 47 0 72 4 68 10 -3 6 -36 10 -72 10 l-66 0 5 71 c4 54 3 69 -7 65 -8 -3 -24 12 -38 33 -14 21 -47 51 -74 66 -82 47 -113 75 -135 122 -11 24 -27 47 -35 50 -16 6 -53 -24 -53 -43 0 -23 -54 -77 -122 -120 -37 -24 -78 -59 -90 -79 -16 -24 -28 -33 -40 -29 -16 5 -18 -2 -18 -50 0 -30 5 -58 10 -61 26 -16 3 -25 -65 -25 -43 0 -75 -4 -75 -10 0 -6 33 -10 80 -10 64 0 80 -3 80 -15 0 -13 -23 -15 -150 -15 l-151 0 -57 36 c-75 48 -202 148 -275 216 -68 64 -60 82 -81 -167 -21 -230 -21 -230 9 -168 26 57 109 153 132 153 9 0 -3 -32 -38 -97 -28 -54 -42 -87 -30 -73 28 33 27 8 -1 -39 l-22 -36 22 19 c26 23 38 16 23 -12 -17 -31 -14 -47 4 -32 20 17 19 7 -5 -41 l-21 -40 27 7 c24 6 25 5 15 -15 -7 -11 -8 -21 -3 -21 5 0 6 -14 4 -31 -3 -22 -1 -30 7 -25 7 4 11 0 11 -13 0 -10 5 -21 11 -23 6 -2 5 -14 -5 -33 -14 -27 -14 -30 0 -33 10 -3 14 -11 11 -23 -3 -10 -1 -19 4 -19 5 0 9 -13 9 -28 l0 -29 85 23 c47 12 111 26 143 29 31 4 64 13 72 20 12 11 26 11 75 -1 75 -17 85 -17 85 0 0 19 48 8 52 -13 2 -9 7 11 11 43 5 42 4 62 -4 67 -18 11 -12 201 7 212 8 4 14 17 14 27 0 17 7 20 44 20 41 0 45 -2 48 -27 3 -25 7 -28 43 -28 39 0 40 1 43 38 3 29 7 37 23 37 15 0 19 -7 19 -34 0 -35 17 -50 45 -40 9 4 15 19 15 40 0 27 4 34 20 34 16 0 20 -7 20 -34 0 -35 17 -50 45 -40 9 4 15 19 15 40 0 27 4 34 19 34 16 0 20 -8 23 -37 3 -37 4 -38 43 -38 36 0 40 3 43 28 3 25 7 27 48 27 38 0 44 -3 44 -21 0 -12 8 -23 20 -26 18 -5 20 -14 20 -109 0 -86 -3 -104 -15 -104 -9 0 -15 -9 -15 -25 0 -14 4 -25 8 -25 5 0 10 -48 11 -107 3 -135 11 -149 11 -19 0 85 2 97 16 92 9 -3 20 -6 25 -6 5 0 9 -31 9 -70 0 -38 2 -70 5 -70 3 0 24 9 45 20 39 20 40 21 40 76 0 47 3 55 16 50 9 -3 22 -6 30 -6 9 0 14 -12 14 -36 0 -28 3 -35 18 -32 9 2 18 14 20 26 4 27 49 57 98 67 30 5 33 8 24 25 -20 37 -12 95 20 138 l30 42 68 0 c84 0 108 14 99 58 -6 29 -4 32 19 32 37 0 89 -25 108 -51 20 -30 21 -42 -14 264 -27 244 -28 260 -13 304 9 26 12 48 7 50 -59 21 -57 14 -88 243 l-29 214 -94 -99 c-52 -55 -110 -121 -130 -147 -21 -27 -40 -48 -44 -48 -9 0 91 249 151 378 21 45 36 82 32 81 -4 0 -109 -34 -234 -76z m-655 -1038 c13 -13 16 -13 27 0 7 8 25 15 40 15 15 0 33 -7 40 -15 11 -13 14 -13 27 0 32 33 83 1 83 -52 0 -14 6 -23 15 -23 10 0 15 10 15 30 l0 30 75 0 c71 0 75 -1 76 -22 l2 -23 4 23 c4 22 8 23 76 20 62 -3 72 -5 69 -20 -2 -10 1 -18 7 -18 5 0 11 8 14 18 4 16 4 16 12 -1 10 -24 -1 -47 -24 -47 -14 0 -21 8 -23 28 -3 25 -6 27 -53 27 -44 0 -50 -2 -55 -25 -4 -15 -14 -26 -27 -28 -17 -3 -22 3 -25 25 -3 27 -6 28 -53 28 -49 0 -50 -1 -53 -32 -3 -30 -6 -33 -38 -33 -32 0 -34 2 -34 34 0 37 -21 62 -45 52 -9 -3 -15 -18 -15 -41 0 -28 -4 -35 -19 -35 -16 0 -20 8 -23 38 -3 32 -6 37 -28 37 -22 0 -25 -5 -28 -37 -3 -30 -7 -38 -23 -38 -15 0 -19 7 -19 35 0 23 -6 38 -15 41 -24 10 -45 -15 -45 -52 0 -32 -2 -34 -34 -34 -32 0 -35 3 -38 33 -3 31 -4 32 -53 32 -47 0 -50 -1 -53 -28 -3 -22 -8 -28 -25 -25 -13 2 -23 13 -27 28 -5 23 -11 25 -55 25 -47 0 -50 -2 -53 -27 -2 -20 -9 -28 -23 -28 -23 0 -34 22 -24 48 7 16 8 16 14 -2 7 -19 8 -19 13 2 6 20 12 22 77 22 67 0 71 -1 72 -22 l2 -23 4 23 c4 20 10 22 79 22 l74 0 0 -30 c0 -20 5 -30 15 -30 9 0 15 9 15 23 0 53 51 85 83 52z"/>
<path d="M2513 2618 c-6 -7 -15 -26 -20 -43 -6 -19 -27 -41 -59 -62 -79 -52 -103 -73 -120 -106 -23 -43 -20 -105 6 -136 11 -14 23 -34 27 -44 7 -23 47 -19 51 6 2 10 -10 33 -27 53 -17 19 -31 44 -31 55 0 40 35 81 102 120 37 22 72 47 77 56 8 16 12 15 36 -9 15 -15 51 -41 81 -57 83 -47 104 -105 59 -159 -31 -37 -34 -82 -5 -82 11 0 20 6 20 13 0 8 9 22 20 32 10 9 24 32 30 51 24 70 -19 139 -123 198 -35 20 -54 40 -72 76 -26 52 -36 59 -52 38z m43 -43 c14 -35 41 -59 116 -105 78 -48 104 -132 60 -187 -13 -16 -25 -36 -29 -45 -7 -24 -23 -23 -23 2 0 10 12 31 26 45 23 23 26 32 21 68 -6 46 -31 73 -122 130 -27 18 -55 42 -61 54 l-11 23 -21 -30 c-12 -16 -48 -44 -79 -63 -73 -42 -107 -89 -99 -137 3 -19 15 -42 26 -52 21 -17 28 -58 10 -58 -5 0 -10 5 -10 11 0 6 -11 24 -25 41 -31 37 -33 97 -5 143 12 19 50 50 89 74 59 35 72 47 86 86 19 49 30 49 51 0z"/>
<path d="M2513 2484 c-3 -8 -30 -29 -60 -46 -82 -46 -104 -104 -58 -154 14 -15 25 -33 25 -40 0 -10 13 -14 40 -14 l40 0 0 58 c0 32 6 66 13 76 23 31 41 -5 38 -74 l-2 -60 50 0 c40 0 51 3 51 16 0 9 9 27 20 41 11 14 20 34 20 45 0 35 -30 78 -68 97 -20 10 -48 31 -61 45 -28 30 -39 32 -48 10z"/>
<path d="M3478 2053 c-4 -38 -56 -63 -130 -63 -51 0 -59 -3 -77 -29 -26 -36 -27 -98 -3 -127 9 -11 34 -33 55 -49 61 -45 44 -64 -20 -20 -30 20 -44 23 -82 18 -92 -12 -106 -38 -36 -66 24 -10 60 -36 80 -58 l35 -39 117 0 c65 0 163 -8 218 -17 143 -24 174 -21 259 21 85 42 207 149 237 209 29 57 28 115 -4 170 -14 24 -38 52 -53 62 -14 9 -23 12 -20 6 4 -5 7 -39 7 -74 1 -152 -105 -227 -321 -227 -79 0 -219 15 -228 25 -2 2 8 33 22 69 17 42 26 84 26 119 0 48 -4 58 -26 76 -36 28 -52 26 -56 -6z"/>
<path d="M2434 2044 c-23 -8 -60 -30 -82 -50 -71 -61 -122 -204 -88 -249 14 -18 15 -15 16 41 1 224 266 336 428 181 164 -157 57 -437 -166 -437 -101 0 -163 35 -241 134 -7 10 -15 15 -18 13 -10 -11 29 -67 73 -106 l47 -41 -96 0 -96 0 -4 73 -3 72 -2 -76 -2 -77 153 -6 c201 -9 196 -9 317 2 79 7 91 9 50 11 l-55 1 43 36 c64 54 94 112 100 195 8 121 -44 215 -149 268 -71 35 -152 41 -225 15z"/>
<path d="M2471 2009 c-69 -21 -127 -74 -156 -143 -16 -38 -20 -123 -7 -144 5 -7 9 17 9 56 0 99 37 163 118 205 50 25 136 27 186 3 35 -16 99 -72 99 -85 0 -3 -14 -12 -31 -20 -28 -12 -33 -12 -51 7 -17 16 -18 23 -8 43 10 22 10 23 -4 5 -11 -13 -22 -17 -41 -12 -23 6 -26 11 -21 31 5 18 2 25 -8 25 -9 0 -12 -7 -9 -20 3 -11 0 -20 -6 -20 -6 0 -11 6 -11 14 0 8 -4 17 -9 20 -4 3 -6 -5 -4 -18 4 -20 0 -24 -27 -28 -21 -3 -34 0 -37 9 -3 7 -10 13 -15 13 -6 0 -5 -7 3 -16 10 -13 8 -19 -13 -39 -23 -21 -28 -22 -39 -9 -10 12 -14 12 -20 2 -5 -8 -1 -15 11 -20 17 -6 18 -11 8 -38 -8 -24 -15 -30 -29 -27 -12 3 -19 0 -19 -8 0 -8 7 -11 18 -8 14 3 18 -2 20 -25 1 -19 -3 -32 -13 -36 -19 -7 -19 -21 1 -41 12 -11 20 -13 29 -5 18 15 43 -16 27 -32 -7 -7 -12 -16 -12 -21 0 -10 42 -6 50 5 12 15 50 -5 51 -26 1 -19 2 -19 6 -2 4 15 7 16 14 5 7 -11 9 -11 9 2 0 19 50 33 65 18 14 -14 29 -11 16 4 -8 11 -6 18 10 33 16 15 24 16 39 6 16 -10 21 -8 31 10 9 17 8 23 -5 30 -26 15 -20 48 9 48 18 0 25 5 25 20 0 14 -7 20 -24 20 -31 0 -44 50 -15 57 11 3 19 9 19 14 0 5 7 9 15 9 18 0 29 -55 23 -126 -9 -109 -99 -186 -216 -185 -68 0 -110 17 -159 64 -18 17 -33 26 -33 21 0 -18 53 -62 100 -83 132 -60 286 17 320 159 33 137 -63 269 -206 284 -27 3 -64 1 -83 -5z m113 -210 c31 17 60 31 66 31 5 0 10 -22 10 -49 0 -139 -185 -182 -244 -56 -19 40 -17 95 5 121 10 13 20 8 60 -32 l47 -47 56 32z"/>
<path d="M3057 1680 c-153 -64 -268 -155 -314 -248 -42 -85 -39 -166 9 -264 20 -40 35 -74 34 -76 -2 -1 -37 3 -77 9 -51 8 -82 19 -99 34 -51 46 -88 58 -166 53 -59 -4 -89 -13 -156 -45 -110 -53 -235 -144 -355 -258 l-98 -92 40 -17 c134 -57 400 -106 570 -106 103 0 113 2 160 29 99 57 173 165 195 284 9 49 9 48 6 -28 -4 -103 -36 -175 -108 -240 -27 -25 -46 -45 -42 -45 37 0 226 35 308 56 148 39 304 102 312 126 19 60 -1 120 -53 163 l-25 21 17 49 c19 57 14 104 -15 130 -11 10 -20 31 -20 46 0 45 23 59 99 59 37 0 70 3 74 6 3 3 -7 17 -22 30 -35 29 -46 68 -31 105 10 23 8 38 -9 86 -34 91 -40 100 -101 132 -32 17 -59 31 -61 30 -2 0 -35 -13 -72 -29z"/>
<path d="M1530 1214 c0 -40 25 -135 67 -252 23 -64 31 -76 67 -96 89 -51 111 -40 57 28 -17 21 -37 59 -46 86 -30 90 -113 271 -118 258 -4 -10 -6 -10 -6 0 -1 6 -5 12 -11 12 -5 0 -10 -16 -10 -36z"/>
<path d="M3575 1214 c-49 -19 -142 -49 -206 -66 l-116 -30 -10 -39 c-9 -35 -8 -40 12 -53 30 -20 55 -76 55 -125 0 -23 2 -41 5 -41 26 0 267 153 344 218 l33 28 -7 72 c-4 40 -10 72 -14 71 -3 0 -46 -16 -96 -35z"/>
<path d="M1815 1219 c-38 -5 -73 -13 -77 -17 -4 -4 -2 -27 3 -52 7 -26 8 -89 5 -152 -4 -68 -3 -109 4 -113 5 -3 10 -17 10 -29 0 -14 10 -30 24 -39 22 -15 25 -14 86 48 35 36 89 86 121 111 l56 47 -14 46 c-8 25 -18 71 -21 101 l-7 55 -60 1 c-33 1 -91 -2 -130 -7z"/>
<path d="M869 4085 c-56 -30 -61 -105 -12 -157 64 -67 173 -30 173 57 0 84 -89 139 -161 100z"/>
<path d="M4090 4039 c-69 -58 -119 -111 -114 -122 2 -7 18 -21 35 -31 43 -26 89 -15 129 31 27 30 31 42 26 71 -5 32 -31 72 -45 72 -3 -1 -17 -10 -31 -21z"/>
</g>
</svg>
