<?xml version="1.0" encoding="UTF-8"?>
<svg width="680" height="330" viewBox="0 0 680 330" xmlns="http://www.w3.org/2000/svg" font-family="Inter, Arial, sans-serif">
  <!-- Main Title Box -->
  <rect x="40" y="20" width="600" height="40" fill="#E5E7EB" stroke="#111827" stroke-width="2"/>
  <text x="340" y="46" font-size="22" text-anchor="middle" font-weight="bold" fill="#111827">BAHAGIAN PENGURUSAN MAKLUMAT (BPM)</text>

  <!-- Domain Boxes -->
  <!-- Mengurus Pengguna -->
  <rect x="40" y="80" width="200" height="180" fill="#F3F4F6" stroke="#111827" stroke-width="1.5"/>
  <text x="140" y="105" font-size="16" font-weight="bold" text-anchor="middle" fill="#0055A4">Mengurus Pengguna</text>
  <rect x="60" y="120" width="160" height="34" fill="#fff" stroke="#D1D5DB" stroke-width="1"/>
  <text x="140" y="142" font-size="13" text-anchor="middle">Pengguna MOTAC</text>
  <rect x="60" y="160" width="160" height="34" fill="#fff" stroke="#D1D5DB" stroke-width="1"/>
  <text x="140" y="182" font-size="13" text-anchor="middle">Pegawai BPM</text>
  <rect x="60" y="200" width="160" height="34" fill="#fff" stroke="#D1D5DB" stroke-width="1"/>
  <text x="140" y="222" font-size="13" text-anchor="middle">Penyokong ICT</text>

  <!-- Mengurus Aset ICT -->
  <rect x="240" y="80" width="200" height="180" fill="#F3F4F6" stroke="#111827" stroke-width="1.5"/>
  <text x="340" y="105" font-size="16" font-weight="bold" text-anchor="middle" fill="#0055A4">Mengurus Aset ICT</text>
  <rect x="260" y="120" width="160" height="34" fill="#fff" stroke="#D1D5DB" stroke-width="1"/>
  <text x="340" y="142" font-size="13" text-anchor="middle">Peralatan ICT</text>
  <rect x="260" y="160" width="160" height="34" fill="#fff" stroke="#D1D5DB" stroke-width="1"/>
  <text x="340" y="182" font-size="13" text-anchor="middle">Lokasi</text>
  <rect x="260" y="200" width="160" height="34" fill="#fff" stroke="#D1D5DB" stroke-width="1"/>
  <text x="340" y="222" font-size="13" text-anchor="middle">Kategori Peralatan</text>
  <rect x="260" y="240" width="160" height="34" fill="#fff" stroke="#D1D5DB" stroke-width="1"/>
  <text x="340" y="262" font-size="13" text-anchor="middle">Pinjaman Peralatan</text>

  <!-- Mengurus Operasi Helpdesk -->
  <rect x="440" y="80" width="200" height="180" fill="#F3F4F6" stroke="#111827" stroke-width="1.5"/>
  <text x="540" y="105" font-size="16" font-weight="bold" text-anchor="middle" fill="#0055A4">Mengurus Operasi Helpdesk</text>
  <rect x="460" y="120" width="160" height="34" fill="#fff" stroke="#D1D5DB" stroke-width="1"/>
  <text x="540" y="142" font-size="13" text-anchor="middle">Tiket Helpdesk</text>
  <rect x="460" y="160" width="160" height="34" fill="#fff" stroke="#D1D5DB" stroke-width="1"/>
  <text x="540" y="182" font-size="13" text-anchor="middle">Kategori Tiket</text>
  <rect x="460" y="200" width="160" height="34" fill="#fff" stroke="#D1D5DB" stroke-width="1"/>
  <text x="540" y="222" font-size="13" text-anchor="middle">Komen Tiket</text>
  <rect x="460" y="240" width="160" height="34" fill="#fff" stroke="#D1D5DB" stroke-width="1"/>
  <text x="540" y="262" font-size="13" text-anchor="middle">Statistik Penyelesaian</text>

  <!-- Caption -->
  <text x="340" y="320" font-size="15" text-anchor="middle" fill="#2563EB" font-weight="bold">
    Rajah 1: Gambaran Bisnes Sistem Pengurusan Pinjaman ICT &amp; Helpdesk
  </text>
</svg>
